<?xml version="1.0" encoding="UTF-8" standalone="no"?>
<!-- Generator: Adobe Illustrator 27.3.1, SVG Export Plug-In . SVG Version: 6.00 Build 0)  -->

<svg
   version="1.1"
   id="Layer_1"
   x="0px"
   y="0px"
   viewBox="0 0 312 312"
   xml:space="preserve"
   sodipodi:docname="0x043fAa1b5C5FC9a7dc35171f290c29ECDE0cCff1.svg"
   width="312"
   height="312"
   inkscape:version="1.3.2 (091e20ef0f, 2023-11-25)"
   xmlns:inkscape="http://www.inkscape.org/namespaces/inkscape"
   xmlns:sodipodi="http://sodipodi.sourceforge.net/DTD/sodipodi-0.dtd"
   xmlns="http://www.w3.org/2000/svg"
   xmlns:svg="http://www.w3.org/2000/svg"><defs
   id="defs4" /><sodipodi:namedview
   id="namedview4"
   pagecolor="#ffffff"
   bordercolor="#000000"
   borderopacity="0.25"
   inkscape:showpageshadow="2"
   inkscape:pageopacity="0.0"
   inkscape:pagecheckerboard="0"
   inkscape:deskcolor="#d1d1d1"
   inkscape:zoom="1.9197667"
   inkscape:cx="283.36777"
   inkscape:cy="209.14"
   inkscape:window-width="1920"
   inkscape:window-height="996"
   inkscape:window-x="0"
   inkscape:window-y="0"
   inkscape:window-maximized="1"
   inkscape:current-layer="Layer_1" />
<style
   type="text/css"
   id="style1">
	.st0{fill:url(#SVGID_1_);}
	.st1{fill:#FFFFFF;}
	.st2{fill:url(#SVGID_00000158023816449909116220000007983296661551751057_);}
	.st3{fill:#001637;}
	.st4{fill:url(#SVGID_00000067223562862869214240000001863713670713552548_);}
	.st5{fill:url(#SVGID_00000052092093105382707270000014498519408374502541_);}
	.st6{fill:url(#SVGID_00000168080676201180932570000003543017068358376593_);}
</style>
<g
   id="g4"
   transform="rotate(-11.9,-13.553552,835.34699)">
	<linearGradient
   id="SVGID_1_"
   gradientUnits="userSpaceOnUse"
   x1="157.077"
   y1="358.1727"
   x2="432.4942"
   y2="82.755501">
		<stop
   offset="0"
   style="stop-color:#003CFF"
   id="stop1" />
		<stop
   offset="1"
   style="stop-color:#00FFFF"
   id="stop2" />
	</linearGradient>
	<polygon
   class="st0"
   points="273.55,184.89 386.28,137.78 312.62,186.43 396.32,221.03 336.72,185.11 452.17,102.43 209.43,191.5 334.63,239.34 195.08,283.23 286.63,234.72 202.62,203.78 261.13,235.6 114.76,315.85 395.04,234.53 "
   id="polygon2"
   style="fill:url(#SVGID_1_)" />
	<g
   id="g3">
		<path
   class="st1"
   d="m 189.4,264.95 c -8.39,-16.82 -13.14,-35.77 -13.14,-55.81 0,-69.2 56.3,-125.49 125.49,-125.49 32.84,0 62.76,12.7 85.15,33.42 l 16.02,-5.88 C 377.29,84.72 341.42,68.23 301.76,68.23 c -77.7,0 -140.91,63.21 -140.91,140.91 0,22.73 5.44,44.2 15.04,63.23 z"
   id="path2" />
		<path
   class="st1"
   d="m 409.02,144.09 c 11.55,18.98 18.21,41.25 18.21,65.05 0,69.2 -56.3,125.49 -125.49,125.49 -35.14,0 -66.93,-14.54 -89.73,-37.89 l -16.53,4.79 c 25.85,29.7 63.89,48.52 106.26,48.52 77.7,0 140.91,-63.21 140.91,-140.91 0,-27.15 -7.74,-52.51 -21.09,-74.04 z"
   id="path3" />
	</g>
</g>
</svg>
